<svg width="75" height="60" viewBox="0 0 75 60" fill="none" xmlns="http://www.w3.org/2000/svg">
<path d="M25 45H35M40.4509 55H19.5491C13.7773 55 9.09824 50.5349 9.09824 45.0269V32.8326C9.09824 31.062 8.36119 29.364 7.04922 28.112C4.00951 25.2113 4.40467 20.4051 7.88126 17.9923L23.8531 6.90749C27.5177 4.36417 32.4823 4.36417 36.1469 6.90749L52.1187 17.9923C55.5953 20.4051 55.9905 25.2113 52.9508 28.112C51.6388 29.364 50.9018 31.062 50.9018 32.8326V45.0269C50.9018 50.5349 46.2227 55 40.4509 55Z" stroke="#066A9E" stroke-width="4" stroke-linecap="round"/>
<path d="M40 45H50M55.4509 55H34.5491C28.7773 55 24.0982 50.5349 24.0982 45.0269V32.8326C24.0982 31.062 23.3612 29.364 22.0492 28.112C19.0095 25.2113 19.4047 20.4051 22.8813 17.9923L38.8531 6.90749C42.5177 4.36417 47.4823 4.36417 51.1469 6.90749L67.1187 17.9923C70.5953 20.4051 70.9905 25.2113 67.9508 28.112C66.6388 29.364 65.9018 31.062 65.9018 32.8326V45.0269C65.9018 50.5349 61.2227 55 55.4509 55Z" stroke="#066A9E" stroke-width="4" stroke-linecap="round"/>
</svg>
